<?xml version="1.0" standalone="no"?>
<!DOCTYPE svg PUBLIC "-//W3C//DTD SVG 20010904//EN"
 "http://www.w3.org/TR/2001/REC-SVG-20010904/DTD/svg10.dtd">
<svg version="1.0" xmlns="http://www.w3.org/2000/svg"
 width="150.000000pt" height="150.000000pt" viewBox="0 0 150.000000 150.000000"
 preserveAspectRatio="xMidYMid meet">

<g transform="translate(0.000000,150.000000) scale(0.100000,-0.100000)"
fill="#000000" stroke="none">
<path d="M17 1486 c-16 -12 -17 -60 -17 -750 l0 -736 750 0 750 0 0 750 0 750
-732 0 c-594 -1 -736 -3 -751 -14z m325 -583 c22 -20 23 -51 1 -75 -21 -24
-33 -23 -33 2 0 11 -7 20 -15 20 -21 0 -19 -29 5 -65 11 -16 20 -41 20 -55 1
-17 8 -7 24 35 l23 60 51 2 c60 3 82 -13 83 -60 0 -29 1 -30 12 -13 43 67 57
76 113 73 29 -2 56 -6 59 -9 4 -3 -1 -20 -10 -37 -15 -31 -13 -51 5 -51 14 0
34 42 34 74 1 40 25 53 66 36 31 -13 32 -14 26 -62 -5 -38 -4 -48 7 -48 20 0
32 17 47 65 20 64 49 115 65 115 21 0 19 -29 -6 -85 -25 -56 -20 -68 11 -26
14 20 30 31 46 31 46 0 42 -61 -5 -68 -25 -4 -28 -20 -5 -29 33 -12 59 13 82
83 26 76 38 94 58 94 20 0 17 -25 -12 -98 -18 -44 -22 -68 -15 -75 12 -12 41
8 41 28 0 24 52 65 82 65 19 0 27 4 22 11 -5 8 -1 8 14 0 35 -18 79 -13 96 11
19 27 30 19 18 -13 -12 -30 0 -62 29 -83 22 -15 20 -15 -28 -9 -51 6 -51 5
-78 -35 -33 -51 -83 -76 -119 -62 -15 5 -29 17 -32 25 -5 12 -11 11 -35 -10
-29 -23 -48 -24 -76 -3 -6 5 -14 5 -17 0 -23 -37 -86 -5 -86 44 0 14 -4 23
-10 19 -5 -3 -10 -19 -10 -35 0 -36 -31 -58 -51 -34 -8 10 -15 12 -23 4 -15
-15 -62 -12 -76 5 -10 13 -10 23 4 57 24 64 5 65 -28 2 -16 -31 -41 -63 -54
-72 -24 -15 -26 -15 -41 4 -16 21 -16 21 -41 2 -31 -23 -56 -16 -67 18 l-8 25
-36 -24 c-47 -32 -76 -38 -90 -21 -10 12 -15 6 -28 -33 -12 -36 -21 -48 -36
-48 -16 0 -20 6 -19 36 l1 35 -37 -9 c-55 -15 -89 -3 -106 39 -18 44 -10 88
19 109 34 24 47 19 45 -17 -2 -24 2 -33 15 -36 25 -5 32 26 13 59 -10 16 -18
44 -18 61 -2 57 71 90 114 51z m884 -20 c-10 -10 -19 5 -10 18 6 11 8 11 12 0
2 -7 1 -15 -2 -18z m90 -10 c-3 -8 -6 -18 -6 -23 0 -4 -11 -3 -24 3 -19 9 -21
15 -13 28 13 20 51 13 43 -8z"/>
<path d="M1249 808 c29 -38 -21 -101 -66 -84 -8 3 -11 1 -8 -4 18 -30 95 15
95 55 0 12 -8 29 -17 36 -16 13 -17 12 -4 -3z"/>
<path d="M1180 770 c0 -5 4 -10 9 -10 6 0 13 5 16 10 3 6 -1 10 -9 10 -9 0
-16 -4 -16 -10z"/>
<path d="M403 755 c-3 -9 -3 -18 0 -22 10 -10 37 6 37 22 0 20 -29 20 -37 0z"/>
<path d="M573 755 c-3 -9 -3 -18 0 -22 10 -10 37 6 37 22 0 20 -29 20 -37 0z"/>
</g>
</svg>
